<?xml version="1.0" standalone="yes"?>
<svg xmlns="http://www.w3.org/2000/svg" width="975" height="980">
<path style="fill:#430167; stroke:none;" d="M0 0L0 980L670 980L670 975L665 975L665 970L660 970L660 965L655 965L655 915L650 915L650 910L645 910L645 835L640 835L640 830L635 830L635 750L630 750L630 735L635 735L635 695L640 695L640 680L645 680L645 670L650 670L650 665L655 665L655 660L695 660L695 665L730 665L730 670L735 670L735 675L740 675L740 680L745 680L745 695L750 695L750 705L755 705L755 770L760 770L760 785L765 785L765 865L770 865L770 920L765 920L765 960L760 960L760 965L755 965L755 970L745 970L745 975L735 975L735 980L975 980L975 0L0 0z"/>
<path style="fill:#95216b; stroke:none;" d="M665 5L665 10L635 10L635 15L625 15L625 20L620 20L620 25L610 25L610 30L605 30L605 35L600 35L600 40L595 40L595 45L590 45L590 50L585 50L585 90L590 90L590 95L595 95L595 100L600 100L600 105L605 105L605 110L620 110L620 115L650 115L650 110L665 110L665 105L675 105L675 100L680 100L680 95L685 95L685 90L695 90L695 85L710 85L710 80L715 80L715 75L720 75L720 70L725 70L725 40L720 40L720 35L715 35L715 25L710 25L710 20L705 20L705 15L700 15L700 10L695 10L695 5L665 5z"/>
<path style="fill:#ff81a5; stroke:none;" d="M670 35L670 40L640 40L640 45L630 45L630 50L625 50L625 55L615 55L615 80L625 80L625 85L645 85L645 80L660 80L660 75L670 75L670 70L675 70L675 65L680 65L680 60L690 60L690 55L695 55L695 45L690 45L690 40L685 40L685 35L670 35z"/>
<path style="fill:#95216b; stroke:none;" d="M250 40L250 45L215 45L215 50L205 50L205 55L200 55L200 60L195 60L195 65L190 65L190 75L185 75L185 95L180 95L180 100L175 100L175 110L170 110L170 135L165 135L165 160L160 160L160 210L155 210L155 265L150 265L150 290L145 290L145 305L140 305L140 325L135 325L135 370L130 370L130 485L135 485L135 490L140 490L140 495L145 495L145 500L150 500L150 505L160 505L160 510L175 510L175 515L185 515L185 520L195 520L195 525L210 525L210 530L225 530L225 525L230 525L230 520L235 520L235 515L240 515L240 510L245 510L245 495L250 495L250 485L260 485L260 495L265 495L265 510L270 510L270 520L275 520L275 535L280 535L280 545L285 545L285 550L290 550L290 555L295 555L295 560L415 560L415 555L425 555L425 550L430 550L430 545L435 545L435 540L440 540L440 500L435 500L435 490L430 490L430 475L425 475L425 455L420 455L420 435L415 435L415 420L410 420L410 410L405 410L405 400L400 400L400 390L395 390L395 380L390 380L390 365L385 365L385 350L380 350L380 345L375 345L375 330L390 330L390 325L425 325L425 320L450 320L450 315L460 315L460 310L510 310L510 305L515 305L515 300L520 300L520 295L525 295L525 255L530 255L530 175L525 175L525 170L520 170L520 165L515 165L515 160L465 160L465 165L445 165L445 170L425 170L425 175L405 175L405 180L380 180L380 185L355 185L355 165L360 165L360 140L365 140L365 120L370 120L370 90L375 90L375 70L370 70L370 65L365 65L365 60L360 60L360 55L320 55L320 50L295 50L295 45L280 45L280 40L250 40z"/>
<path style="fill:#ff81a5; stroke:none;" d="M255 70L255 75L220 75L220 80L215 80L215 100L210 100L210 135L205 135L205 140L200 140L200 145L195 145L195 165L190 165L190 215L185 215L185 270L180 270L180 295L175 295L175 310L170 310L170 330L165 330L165 375L160 375L160 475L165 475L165 480L180 480L180 485L190 485L190 490L200 490L200 495L215 495L215 490L220 490L220 480L225 480L225 470L230 470L230 460L235 460L235 445L240 445L240 430L245 430L245 425L260 425L260 430L265 430L265 435L275 435L275 445L280 445L280 450L285 450L285 480L290 480L290 490L295 490L295 505L300 505L300 515L305 515L305 530L410 530L410 505L405 505L405 495L400 495L400 480L395 480L395 460L390 460L390 440L385 440L385 425L380 425L380 415L375 415L375 405L370 405L370 395L365 395L365 385L360 385L360 370L355 370L355 355L350 355L350 350L345 350L345 335L340 335L340 325L335 325L335 315L330 315L330 295L350 295L350 300L385 300L385 295L420 295L420 290L445 290L445 285L455 285L455 280L495 280L495 250L500 250L500 190L470 190L470 195L450 195L450 200L430 200L430 205L410 205L410 210L385 210L385 215L345 215L345 210L335 210L335 205L330 205L330 200L325 200L325 160L330 160L330 135L335 135L335 115L340 115L340 85L315 85L315 80L290 80L290 75L275 75L275 70L255 70z"/>
<path style="fill:#95216b; stroke:none;" d="M695 110L695 115L685 115L685 120L665 120L665 125L655 125L655 130L650 130L650 135L645 135L645 140L640 140L640 170L635 170L635 205L640 205L640 220L645 220L645 240L655 240L655 300L660 300L660 320L665 320L665 355L670 355L670 375L675 375L675 405L680 405L680 425L685 425L685 450L690 450L690 480L695 480L695 490L700 490L700 505L705 505L705 510L710 510L710 515L715 515L715 520L720 520L720 525L755 525L755 520L770 520L770 515L785 515L785 510L810 510L810 505L830 505L830 500L840 500L840 495L845 495L845 490L850 490L850 485L855 485L855 450L850 450L850 395L840 395L840 360L835 360L835 340L830 340L830 315L825 315L825 305L820 305L820 290L815 290L815 265L810 265L810 250L805 250L805 230L795 230L795 205L790 205L790 190L785 190L785 170L780 170L780 150L770 150L770 130L765 130L765 125L760 125L760 120L755 120L755 115L750 115L750 110L695 110z"/>
<path style="fill:#ff81a5; stroke:none;" d="M700 140L700 145L690 145L690 150L670 150L670 155L665 155L665 180L660 180L660 200L665 200L665 205L670 205L670 210L675 210L675 230L680 230L680 235L685 235L685 290L690 290L690 320L695 320L695 350L700 350L700 370L705 370L705 405L710 405L710 420L715 420L715 445L720 445L720 475L725 475L725 490L730 490L730 495L750 495L750 490L770 490L770 485L775 485L775 480L800 480L800 475L820 475L820 470L825 470L825 455L820 455L820 400L810 400L810 365L805 365L805 345L800 345L800 315L795 315L795 310L790 310L790 295L785 295L785 270L780 270L780 255L775 255L775 235L765 235L765 210L760 210L760 195L755 195L755 175L750 175L750 160L745 160L745 150L740 150L740 140L700 140z"/>
<path style="fill:#95216b; stroke:none;" d="M675 540L675 545L665 545L665 550L660 550L660 555L655 555L655 560L650 560L650 565L645 565L645 570L640 570L640 575L635 575L635 630L640 630L640 635L645 635L645 640L650 640L650 645L665 645L665 650L690 650L690 645L705 645L705 640L710 640L710 635L715 635L715 630L720 630L720 625L725 625L725 620L730 620L730 605L735 605L735 575L730 575L730 570L725 570L725 565L720 565L720 560L715 560L715 555L710 555L710 550L700 550L700 545L685 545L685 540L675 540z"/>
<path style="fill:#ff81a5; stroke:none;" d="M680 570L680 575L670 575L670 580L665 580L665 615L670 615L670 620L685 620L685 615L700 615L700 600L705 600L705 585L700 585L700 580L695 580L695 575L685 575L685 570L680 570z"/>
<path style="fill:#95216b; stroke:none;" d="M460 595L460 600L430 600L430 605L325 605L325 610L180 610L180 615L135 615L135 620L130 620L130 725L135 725L135 730L140 730L140 735L145 735L145 740L165 740L165 745L265 745L265 740L270 740L270 775L275 775L275 830L280 830L280 925L285 925L285 930L290 930L290 935L295 935L295 940L405 940L405 935L430 935L430 930L435 930L435 925L440 925L440 920L445 920L445 910L450 910L450 735L495 735L495 730L525 730L525 725L530 725L530 720L535 720L535 715L540 715L540 705L535 705L535 690L530 690L530 675L525 675L525 655L520 655L520 620L515 620L515 610L510 610L510 605L505 605L505 600L500 600L500 595L460 595z"/>
<path style="fill:#ff81a5; stroke:none;" d="M465 625L465 630L435 630L435 635L330 635L330 640L185 640L185 645L160 645L160 710L170 710L170 715L260 715L260 710L290 710L290 715L295 715L295 720L300 720L300 770L305 770L305 825L310 825L310 915L375 915L375 910L400 910L400 905L420 905L420 725L425 725L425 710L430 710L430 705L490 705L490 700L505 700L505 695L500 695L500 680L495 680L495 660L490 660L490 625L465 625z"/>
<path style="fill:#95216b; stroke:none;" d="M655 660L655 665L650 665L650 670L645 670L645 680L640 680L640 695L635 695L635 735L630 735L630 750L635 750L635 830L640 830L640 835L645 835L645 910L650 910L650 915L655 915L655 965L660 965L660 970L665 970L665 975L670 975L670 980L735 980L735 975L745 975L745 970L755 970L755 965L760 965L760 960L765 960L765 920L770 920L770 865L765 865L765 785L760 785L760 770L755 770L755 705L750 705L750 695L745 695L745 680L740 680L740 675L735 675L735 670L730 670L730 665L695 665L695 660L655 660z"/>
<path style="fill:#ff81a5; stroke:none;" d="M670 690L670 700L665 700L665 730L660 730L660 760L665 760L665 820L670 820L670 840L675 840L675 900L680 900L680 925L685 925L685 950L730 950L730 945L735 945L735 915L740 915L740 860L735 860L735 780L730 780L730 775L725 775L725 700L720 700L720 695L695 695L695 690L670 690z"/>
</svg>
